<?xml version="1.0" encoding="UTF-8" standalone="no"?>
<!-- Created with Inkscape (http://www.inkscape.org/) -->

<svg
   width="62.0746mm"
   height="43.60157mm"
   viewBox="0 0 62.0746 43.60157"
   version="1.1"
   id="svg1"
   xml:space="preserve"
   inkscape:export-filename="fareperfect_logo_only.svg"
   inkscape:export-xdpi="96"
   inkscape:export-ydpi="96"
   xmlns:inkscape="http://www.inkscape.org/namespaces/inkscape"
   xmlns:sodipodi="http://sodipodi.sourceforge.net/DTD/sodipodi-0.dtd"
   xmlns="http://www.w3.org/2000/svg"
   xmlns:svg="http://www.w3.org/2000/svg"><sodipodi:namedview
     id="namedview1"
     pagecolor="#ffffff"
     bordercolor="#000000"
     borderopacity="0.25"
     inkscape:showpageshadow="2"
     inkscape:pageopacity="0.0"
     inkscape:pagecheckerboard="0"
     inkscape:deskcolor="#d1d1d1"
     inkscape:document-units="mm" /><defs
     id="defs1" /><g
     inkscape:label="Layer 1"
     inkscape:groupmode="layer"
     id="layer1"
     transform="translate(-293.80561,4.7723068)"><g
       id="g48"
       transform="translate(10.32046,-181.56371)"><g
         id="g49"
         transform="translate(33.637064,70.714285)"><g
           id="g47"><path
             style="clip-rule:evenodd;fill-rule:evenodd;stroke-width:0.264583;image-rendering:optimizeQuality;shape-rendering:geometricPrecision;text-rendering:geometricPrecision"
             fill="#f5af30"
             d="m 278.96735,139.75681 c 1.66344,-1.57453 3.33905,-3.16203 5.02709,-4.7625 0.76253,0.40217 1.55628,0.75486 2.38125,1.05833 1.66449,-0.59901 3.3401,-1.1721 5.02708,-1.71979 0.28549,-1.17369 -0.0233,-2.1881 -0.92604,-3.04271 -1.25386,0.56568 -2.53286,0.96256 -3.83646,1.19063 0.45191,-0.54054 0.98108,-0.9816 1.5875,-1.32292 5.00036,-1.69598 9.93934,-3.54806 14.81667,-5.55625 0.90672,-0.47519 1.74466,-1.04854 2.51354,-1.71979 0.21828,-0.58235 0.086,-1.06733 -0.39688,-1.45521 -2.34579,-0.64135 -4.72704,-0.90593 -7.14375,-0.79375 -3.83301,1.27768 -7.66947,2.55641 -11.50937,3.83646 -4.48442,-1.04378 -8.93815,-2.19048 -13.36146,-3.43958 1.77244,-8.34205 6.79953,-13.58972 15.08125,-15.74271 11.48292,-1.29757 19.20002,3.42085 23.15104,14.15521 1.91241,9.61654 -1.2184,17.0688 -9.39271,22.35729 -7.56602,3.80338 -14.79788,3.27422 -21.69583,-1.5875 -0.49556,-0.45085 -0.93662,-0.93583 -1.32292,-1.45521 z"
             id="path2" /><path
             style="clip-rule:evenodd;fill-rule:evenodd;stroke-width:0.264583;image-rendering:optimizeQuality;shape-rendering:geometricPrecision;text-rendering:geometricPrecision"
             fill="#050403"
             d="m 273.14652,122.02973 c 4.42331,1.2491 8.87704,2.3958 13.36146,3.43958 3.8399,-1.28005 7.67636,-2.55878 11.50937,-3.83646 2.41671,-0.11218 4.79796,0.1524 7.14375,0.79375 0.48287,0.38788 0.61516,0.87286 0.39688,1.45521 -0.76888,0.67125 -1.60682,1.2446 -2.51354,1.71979 -4.87733,2.00819 -9.81631,3.86027 -14.81667,5.55625 -0.60642,0.34132 -1.13559,0.78238 -1.5875,1.32292 1.3036,-0.22807 2.5826,-0.62495 3.83646,-1.19063 0.90276,0.85461 1.21153,1.86902 0.92604,3.04271 -1.68698,0.54769 -3.36259,1.12078 -5.02708,1.71979 -0.82497,-0.30347 -1.61872,-0.65616 -2.38125,-1.05833 -1.68804,1.60047 -3.36365,3.18797 -5.02709,4.7625 -3.04826,3.00434 -6.13515,5.95895 -9.26041,8.86354 -0.89271,0.62045 -1.86293,0.97314 -2.91042,1.05834 3.14484,-4.33361 6.23173,-8.69924 9.26042,-13.09688 1.0541,-1.12368 0.87762,-1.30016 -0.52917,-0.52917 -3.78328,1.30519 -7.57555,2.58393 -11.37708,3.83646 -2.81067,0.44 -5.63298,0.79269 -8.46667,1.05834 -1.24354,0.28231 -2.47809,0.59108 -3.70417,0.92604 -0.49053,-0.17886 -0.57864,-0.44344 -0.26458,-0.79375 1.05013,-0.52494 2.10847,-1.0541 3.175,-1.5875 0.0881,-0.17648 0.17648,-0.35269 0.26458,-0.52917 -1.64861,-3.03186 -3.36841,-6.03038 -5.15937,-8.99583 -0.12965,-0.34211 -0.17383,-0.69506 -0.13229,-1.05834 1.20967,-0.41936 2.44422,-0.64002 3.70416,-0.66145 2.70272,2.21959 5.43693,4.38044 8.20209,6.48229 3.79836,-1.41288 7.59089,-2.8239 11.37708,-4.23334 1.78832,-0.58155 3.5523,-1.24301 5.29167,-1.98437 -1.8415,-1.14141 -3.78169,-2.06745 -5.82084,-2.77813 -3.7211,-1.81662 -7.42526,-3.71289 -11.1125,-5.68854 0.8472,-0.39237 1.72932,-0.48075 2.64584,-0.26458 2.99746,0.7792 5.99599,1.52876 8.99583,2.24896 z"
             id="path3" /></g><path
           style="clip-rule:evenodd;fill-rule:evenodd;stroke-width:0.264583;image-rendering:optimizeQuality;shape-rendering:geometricPrecision;text-rendering:geometricPrecision"
           fill="#f0ac33"
           d="m 272.61735,125.73389 c 2.03915,0.71068 3.97934,1.63672 5.82084,2.77813 -1.73937,0.74136 -3.50335,1.40282 -5.29167,1.98437 -0.23416,-1.58062 -0.41037,-3.16812 -0.52917,-4.7625 z"
           id="path4" /></g></g></g></svg>
