<svg xmlns="http://www.w3.org/2000/svg" xml:space="preserve" viewBox="0 0 80.9 33.7"><path fill="#2b2b2b" d="M38.6 2.8q-3.3 1.7-6.5 3.8c-.3.3-.8.2-1.2.2q-.1 0 0-.1 3.3-2.4 6.8-4.4Q39.9 1 42 .4q1.9-.5 4.7-.4 4.5.3 9.5 1.3C62 2.5 67.7 4 73.5 5q2.3.4 5.1.6.5 0 .3.5l-.4 1.2q-.2.4-.7.3l-16.3-4q-6.3-1.4-12.6-2.3l-3-.2h-3.1q-1.6.3-4.2 1.7z"/><path fill="#2b2b2b" d="m52.4 7 1-4a.1.1 0 0 1 .2 0l7 1.3a.2.2 13.3 0 1 0 .2C60 7 57.1 8 54.8 8.4c-2 .3-3.8.2-5.7.2L25 8.3q-6 0-12 1-4.1.8-7.6 2.3A20 20 0 0 0 0 15.4q-.1 0 0 0c2.1-3 5.2-4.7 8.7-5.8 6-2 12.7-2.4 19.1-2.3h21.6l2.6-.1q.2 0 .3-.2zm22.9 1.1L71.7 7q-.3 0 0 0 3.3.3 6.6 1.4c1 .3 2.5 1.2 2.6 2.4a.2.2-2.7 0 1-.2.2h-3.4q-.6 0-1.1-.6-.2-.1 0-.3.5-.4.4-1V9q-.6-.5-1.3-.8zm-20.6 3.7q0-.6-.3-.1-.4.5-.6 1.2h-.2q0-.9.4-1.5.3-.4 1-.5a.1.1 0 0 1 .1.1l-.2 1.3q0 .4-.3.6h-.1l.2-1.1z"/><path fill="#2b2b2b" d="M7.8 11q.3 0 .1.2-.8.8-1.8 1.5-1.3 1-3.1 1-.4 0-.1-.1Q5 12 7.9 11zm17.9 9.6v.1h-2.3q.2-1 0-2a.5.5 78.5 0 0-.6-.4c-1.8.4-2 4.9-2 6.3 0 .8 1 .9 1.4.3q.6-.9.8-2h2.4l-.5 2.4-.1.2q-2.7 1.2-5.1.4-.8-.3-1.3-1-.4-.4-.5-1.3-.3-2 .6-3.6c1.4-2.9 5-3.2 7.6-1.8l.1.2zm4-3.1a.3.3 12 0 0-.3.1l-2.3 5.2-1.5 3.2.1.2h.8c.2 0 .3 0 .3-.2l.9-1.9.2-.1h2.3a.2.2 0 0 1 .1.1l.2 2a.1.1 0 0 0 .1.1h2.8a.1.1 0 0 0 .1-.1l-.9-8.4c0-.2 0-.2-.2-.2zm.1 1.8v.2l.4 3.4-.2.1h-1.7s-.1 0 0-.1l1.4-3.4.1-.2zm8.4-1.8h-1.8a.2.2 5.8 0 0-.2.1L34.5 26l.1.2h2.5l.2-.1.7-3.2c.1-.6.3-.6.4 0l1 3.2.3.1h2.5a.1.1 0 0 0 .1-.1L41 22.3l.1-.3c1-.3 1.6-1 1.7-2.1.2-1.8-1-2.4-2.6-2.4h-1.9zm1.3.9c.3 0 .7.1.7.6.1.7 0 1.4-.4 2-.3.6-.9.6-1.4.5l-.1-.2.6-2.7c0-.1 0-.2.2-.2h.4zM53 21h2l.1.2-.1.7h-.1l-2.2.1h-.1l-.8 4.1-.1.1H49l1.7-8.6.1-.1h5.4v.8l-.2.1h-2.6l-.6 2.6h.1zm3.6-3.5h3.2l1 2.7h.2l2-2.7h1.4v.1l-3 3.8v.1l2 4.6-.1.1h-3.1L59 23.6h-.1l-2 2.6h-1.5l-.1-.1 3-3.8-1.9-4.7.1-.1zm-8.9 6.3h-4a.1.1 0 0 1-.1-.1l.2-1a.1.1 0 0 1 .1-.2h4a.1.1 0 0 1 .1.2l-.2 1a.1.1 0 0 1-.1.1zM18 32.5c.2-.8.4-1.4 1.3-1.7q1-.3 1.7.7a.2.2 50 0 1 0 .2q-.2.2-.4.1-.2 0-.3-.2a.6.6 65.4 0 0-.7-.3q-.6.1-.8.7c-.4 1 .6 1.3 1.3.7a.7.7 0 0 1 .7-.1h.1v.1q-1.6 1.8-2.8.3v-.5zm5.7-1.9-.6.6-1.3 2.2v.2h.7l.3-.4a.1.2 16.6 0 1 0-.1h1c.1 0 .2 0 .2.2v.2a.1.1 83.7 0 0 .2.1h.3c.1 0 .2 0 .1-.1l-.4-2.1c0-.5-.2-.8-.4-.8zm-.1 1v.1l.2.8-.1.1H23l-.1-.1.5-.8zm3.4-.9h-.6l-.2.2-.5 2.5c0 .2 0 .2.2.2h.3l.2-.1V33c0-.2 0-.3.2-.3h.3l.2.2.1.4a.3.3 84.4 0 0 .3.2h.4v-.1l-.2-.7a.2.2 62.4 0 1 0-.3c.3-.1.5-.4.6-.6.2-1-.5-1.2-1.2-1.2zm.3.6a.4.4 27.6 0 1 .2.7 1 1 0 0 1-.7.2c-.1 0-.2-.1-.1-.2v-.6a.2.2 2.9 0 1 .2-.1zm3.7 2.1.4-2.5a.1.1 0 0 1 .2-.2c1 0 2.6 0 2.2 1.5-.3 1.4-1.6 1.5-2.7 1.4q-.2 0-.2-.2zm4.9-1.4h.9v.4a.1.1 0 0 1-.1 0h-.9a.1.1 0 0 0-.1.1l-.1.4a.1.1 0 0 0 0 .2h1a.1.1 0 0 1 .2.1v.3a.1.1 0 0 1-.2.1H35a.1.1 0 0 1-.2-.1l.6-2.7h1.7a.1.1 0 0 1 .1 0v.3a.1.1 0 0 1-.1.1H36a.1.1 0 0 0-.1.2l-.1.4a.1.1 0 0 0 0 .1zm3.7-1.3c-.1 0-.2 0-.3.2l-1.5 2.5v.2c.5.1.7 0 .8-.3l.2-.2h1l.1.2v.2l.2.1h.4a.1.1-5.8 0 0 0-.1l-.5-2.6c0-.1 0-.2-.2-.2zm0 1 .2.8-.1.1H39v-.1l.4-.8zm2.2 1.6.5-2.5h.6l-.4 2a.1.1 5.9 0 0 .2.2h.9q.1 0 0 .2v.2q0 .2-.2.2H42l-.2-.1v-.1zm4-1.3.9-.1a.1.1 0 0 1 .1.1v.3a.1.1 0 0 1-.2.1h-1a.1.1 0 0 0 0 .1l-.1.4a.1.1 0 0 0 0 .2h1.1a.1.1 0 0 1 .1.2v.3a.1.1 0 0 1-.2 0H45a.1.1 0 0 1-.1-.1l.5-2.7H47a.1.1 0 0 1 .1 0v.3a.1.1 0 0 1-.1.1h-1.1a.1.1 0 0 0-.1.2v.4a.1.1 0 0 0 0 .1zm3.8-1.3h-.1a15 15 0 0 1-1 0l-.5 2.7.1.2h.3l.2-.1V33a.3.3 78.3 0 1 .2-.2h.3l.2.2.1.4c0 .2.2.2.4.2h.2c.2 0 .2 0 .1-.2l-.2-.6v-.2c1-.6.8-2-.3-1.9zm-.2.6h.2a.4.4 34 0 1 .2.7 1 1 0 0 1-.9.2.1.1 9.2 0 1 0-.2v-.5l.2-.2h.3zm2.9 1.7q.4.2.7 0a.3.3 36.8 0 0 0-.5c-.4-.1-.9-.2-1.1-.5-.2-.3 0-.8.3-1q.8-.6 1.6.1a.3.3 63.4 0 1-.1.5q-.3 0-.4-.2l-.3-.2q-.3 0-.5.2a.3.3 0 0 0 0 .4l.8.3c.5.2.6.8.2 1.2-.5.4-1.8.6-2-.3a.3.3.2 0 1 .4-.3q.2 0 .2.2l.2.2zm4.7-1.3.1-.9a.1.1 0 0 1 .2 0h.4l-.4 2.7a.1.1 0 0 1-.2.1h-.3a.1.1 0 0 1-.2-.1l.2-1a.1.1 0 0 0-.1-.1h-.9a.1.1 0 0 0-.1 0l-.2 1.1a.1.1 0 0 1-.1.1H55a.1.1 0 0 1-.1-.1l.5-2.7h.5a.1.1 0 0 1 .1 0l-.2.8a.1.1 0 0 0 .1.2h1a.1.1 0 0 0 0-.1zm2.3 1.9a.1.1 0 0 1-.2 0h-.3a.1.1 0 0 1-.1-.1l.5-2.7a.1.1 0 0 1 .1-.1h.4a.1.1 0 0 1 .1.2zm2.7-2.9h-.6l-.1.2-.2 1.2-.3 1.4.1.1h.3l.2-.1V33l.3-.2c.7 0 1.4-.1 1.6-.9.3-1-.5-1.2-1.3-1.2zm0 .6h.4a.4.4 0 0 1 .3.6c-.2.3-.5.4-1 .4V32l.1-.7.2-.1z"/><path fill="#f4f4f4" d="m31.7 32.9.3-1.5.1-.1c1.8-.2 1.1 2-.3 1.8a.1.1 0 0 1-.1-.2z"/></svg>