<svg xmlns="http://www.w3.org/2000/svg" xml:space="preserve" viewBox="0 0 95.8 55.6"><g fill-rule="evenodd" clip-rule="evenodd" image-rendering="optimizeQuality" shape-rendering="geometricPrecision" text-rendering="geometricPrecision"><path fill="#f5af30" d="m47.6 33.7 5-4.8c.8.4 1.6.8 2.4 1l5-1.6a3 3 0 0 0-.9-3 16 16 0 0 1-3.8 1.1c.4-.5 1-1 1.6-1.3 5-1.7 10-3.6 14.8-5.6 1-.5 1.7-1 2.5-1.7.2-.6.1-1-.4-1.5-2.3-.6-4.7-.9-7.1-.7l-11.5 3.8c-4.5-1-9-2.2-13.4-3.4A19.3 19.3 0 0 1 56.8.2C68.5-1 76.2 3.6 80 14.4a20 20 0 0 1-9.4 22.3A19.8 19.8 0 0 1 49 35.1l-1.3-1.4z"/><path fill="#050403" d="m41.8 16 13.4 3.4 11.5-3.8c2.4-.2 4.8.1 7.1.7.5.4.6 1 .4 1.5a13 13 0 0 1-2.5 1.7c-4.9 2-9.8 3.9-14.8 5.6a5 5 0 0 0-1.6 1.3 16 16 0 0 0 3.8-1.2 3 3 0 0 1 1 3L55 30l-2.4-1a8356.8 8356.8 0 0 1-14.3 13.5c-1 .7-1.9 1-3 1.1 3.2-4.3 6.3-8.7 9.3-13.1 1-1.1.9-1.3-.5-.5l-11.4 3.8a79 79 0 0 1-8.5 1l-3.7 1c-.5-.2-.5-.4-.2-.8l3.1-1.6.3-.5-5.1-9c-.2-.4-.2-.7-.2-1 1.2-.5 2.5-.7 3.7-.7a278 278 0 0 0 8.2 6.5A48154 48154 0 0 0 47 22.4a331 331 0 0 1-17-8.5 4 4 0 0 1 2.7-.2l9 2.3z"/><path fill="#f0ac33" d="M41.3 19.7c2 .7 4 1.6 5.8 2.7-1.7.8-3.5 1.4-5.3 2l-.5-4.7z"/><path fill="#cf9735" d="m44.7 30.5-.5-.5c1.4-.8 1.6-.6.5.5z"/><path fill="#f7b138" d="M81.5 46.4c1.7-.2 3.3.3 4.6 1.3.5.6.9 1.3 1 2.1-1.3.2-2.3-.2-3-1.2-2.2-.7-3.5 0-4 2.3.4 2.4 1.7 3.3 4 2.5.5-.4.8-.8 1.1-1.3a3 3 0 0 1 2.1.1c-1.4 3.2-3.8 4.2-7.1 2.8a5.5 5.5 0 0 1-2-5.4 4.8 4.8 0 0 1 3.3-3.2z"/><path fill="#f7b037" d="M0 46.6h5.6v1.9H2v2.1h3.2v1.9H2v2.9H0v-8.8z"/><path fill="#f7b137" d="M10.1 46.6h-.6l-3.1 8.8h2c0-.6.2-1 .6-1.5 1.1-.2 2.3-.2 3.4 0 .4 1.4 1.3 1.8 2.7 1.2L11.8 47a5 5 0 0 0-1.7-.3zm.5 2.7c.5.8 1 1.7 1.3 2.6-.8.4-1.6.4-2.4 0 .4-.8.8-1.7 1-2.6z"/><path fill="#f7b034" d="M17.6 46.6h-1.2v8.8h2.1v-2.7c.5 0 1 0 1.3.2l1.4 2.2a3 3 0 0 0 2.3.1L22 52.5l1.2-1.4c.8-2.1 0-3.6-2-4.3a43 43 0 0 0-3.6-.2zm1 1.9h1.8c1 .3 1.2.9.9 1.8a1 1 0 0 1-1 .6h-1.8z"/><path fill="#f7b030" d="M31 46.6v1.6c-1.3 0-2.6 0-3.7.3v1.6h3.4v1.6h-3.4v2h4v1.7h-5.9v-8.8H31z"/><path fill="#f7b23b" d="M39.8 46.6h-1.2v8.8h2.1V53a5 5 0 0 0 4.7-1.6c.8-2.2.1-3.7-2-4.6a43 43 0 0 0-3.6-.2zm1.5 1.9 1.8.1c.7.8.7 1.6 0 2.4-.8.1-1.6.2-2.4.1v-2.6h.6z"/><path fill="#f7b238" d="M52.7 50v1.7h-3.5v2h4v1.7H47v-8.8h5.8v1.6h-3.7v1.9h3.5z"/><path fill="#f7b23a" d="M56.2 46.6h-1.4v8.8h2v-2.7c.6 0 1.2 0 1.7.3l1.3 2.2c.8.2 1.6.2 2.4 0a13 13 0 0 1-1.9-2.7c.6-.4 1.1-1 1.5-1.6.4-1.6 0-2.9-1.2-3.9a24 24 0 0 0-4.4-.4zm1.3 1.9 2 .1c.7.7.7 1.4 0 2.1-.8.2-1.7.2-2.6.2v-2.4h.6z"/><path fill="#f7b037" d="M63.8 46.6h5.5v1.9H66v2.1h3v1.9h-3.2v2.9h-2.1v-8.8z"/><path fill="#f7b134" d="M73 51.7c-.2.6-.3 1.3-.2 2h4v1.7h-5.9v-8.8h5.8v1.6H73v1.9h3.5v1.6H73z"/><path fill="#f7b030" d="M88.1 46.6h7.7v1.9h-3v6.9H91v-6.9h-2.9v-1.9z"/><path fill="#f8c2a3" d="M31 46.6c.2.6.3 1.2.2 1.9h-4c1.2-.3 2.5-.4 3.8-.3v-1.6z"/><path fill="#f7b486" d="M20.4 48.5h-1.9v2.4h1.9c-.7.2-1.4.3-2.1.2v-2.9c.7 0 1.4 0 2 .3z"/><path fill="#f7b030" d="M32.8 51.4h4v1.3h-4v-1.3z"/><path fill="#f8c5bb" d="M30.7 50c.2.6.3 1.3.3 2h-3.5v1.5h4c0 .7 0 1.3-.3 1.9v-1.6h-4v-2.1h3.5V50z"/><path fill="#f8c8b9" d="M52.7 50c.2.6.3 1.3.2 2h-3.4v1.5c1.3 0 2.5 0 3.7.3h-4v-2.1h3.5V50z"/><path fill="#f8bf99" d="M73 51.7v1.8h4c0 .7 0 1.3-.3 1.9v-1.6h-4c0-.8 0-1.5.3-2.1z"/></g></svg>