<svg xmlns="http://www.w3.org/2000/svg" xml:space="preserve" viewBox="0 0 77 55.6"><g fill-rule="evenodd" clip-rule="evenodd" image-rendering="optimizeQuality" shape-rendering="geometricPrecision" text-rendering="geometricPrecision"><path fill="#f5af30" d="m38.6 33.7 5.5-5.3c0 .3 0 .5-.2.8.8.1 1.6.4 2.3.8a19 19 0 0 1 4.6-1.5c.7-1.2.5-2.3-.7-3.3-1.2.6-2.4 1-3.5 1 .3-.4.7-.8 1.3-1.1a160 160 0 0 0 16.7-6.6c1.2-.7 1.3-1.4.2-2.2-2.5-.6-5-1-7.7-.7-3.5 1.3-7 2.6-10.7 3.8-4.5-1-9-2.2-13.6-3.4A19.3 19.3 0 0 1 47.8.2C59.5-1 67.2 3.6 71 14.4a20 20 0 0 1-9.4 22.3A19.8 19.8 0 0 1 40 35.1l-1.4-1.4z"/><path fill="#040302" d="m32.8 16 13.6 3.4 10.7-3.8c2.6-.2 5.2 0 7.7.7 1 .8 1 1.5-.2 2.2A160 160 0 0 1 47.9 25a3 3 0 0 0-1.3 1.2 17 17 0 0 0 3.5-1c1.2.9 1.4 2 .7 3.2a19 19 0 0 0-4.6 1.5c-.7-.4-1.5-.7-2.3-.8.2-.3.3-.5.2-.8l-5.5 5.3c-3 3-6.1 6-9.2 8.8-1 .7-1.9 1-3 1.1 3.2-4.3 6.3-8.7 9.3-13.1 1-1.1.9-1.3-.5-.5l-11.4 3.8c-2.4.4-4.7.7-7.1.8-1.7.3-3.4.7-5 1.2a.8.8 0 0 1-.6-.5c1-.7 2.2-1.3 3.5-1.8l.2-.5a208 208 0 0 0-5.1-9.1c-.2-.4-.2-.7 0-1a5 5 0 0 1 3.5-.7l6.6 5.5a5 5 0 0 0 1.9 1 7156.6 7156.6 0 0 1 16.7-6.3c-2-1-4-2-6.1-2.7A331 331 0 0 1 21.2 14c.9-.4 1.9-.5 2.9-.3l8.7 2.3z"/><path fill="#efac33" d="M32.3 19.7a47 47 0 0 1 6 2.7l-5.5 2-.5-4.7z"/><path fill="#c79133" d="m35.7 30.5-.5-.5c1.4-.8 1.6-.6.5.5z"/><path fill="#f7b137" d="M33.6 46.4c2.9-.4 4.7.7 5.6 3.4-1.3.2-2.3-.2-3-1.2-3-.7-4.3.5-3.8 3.6 1 1.5 2.2 2 3.8 1.2.5-.4.9-.8 1.1-1.3a3 3 0 0 1 2.1.1c-1.7 3.4-4.2 4.2-7.7 2.5-2-2.5-2-5 0-7.4l1.9-1zM0 46.6h7.7v1.9H5v6.9H3v-6.9H0v-1.9z"/><path fill="#f7b034" d="M10.5 46.6H9.3v8.8H11v-2.7c.6 0 1.1 0 1.6.3l1.3 2.2c.8.2 1.6.2 2.4 0l-1.6-2.6 1.2-1.7c.7-2 0-3.4-2-4.1a43 43 0 0 0-3.5-.2zm1.3 1.9 2 .1c.7.7.7 1.4 0 2.1-1 .2-1.8.2-2.7.2v-2.4h.7z"/><path fill="#f7b53d" d="M18 46.6h2v8.8h-2v-8.8z"/><path fill="#f7b139" d="M23.6 46.6h-1.4v8.8h2.1V53a7 7 0 0 0 3.7-.7c2-2 1.7-3.7-.5-5.3-1.3-.2-2.6-.4-4-.4zm1.3 1.9 1.8.1c.7.8.7 1.6 0 2.4-.8.1-1.6.2-2.4.1v-2.6h.6z"/><path fill="#f7b137" d="M44 46.6h-.6a507 507 0 0 0-3.4 8.6c.7.2 1.4.2 2 0 .4-.4.6-.9.6-1.4 1.2-.1 2.5 0 3.7.3.5 1.2 1.4 1.5 2.6 1-1-2.7-2.2-5.5-3.4-8.2-.5-.2-1-.3-1.6-.3zm.5 2.7c.5.9.9 1.8 1 2.9h-2.1c.2-1 .6-2 1-3z"/><path fill="#f7b238" d="M50 46.6c.6 0 1.2 0 1.9.2 1.3 1.6 2.6 3.3 3.8 5.1.1-1.7.2-3.5.1-5.3h1.9v8.8c-.6 0-1 0-1.6-.2l-3.8-4.9c-.2 1.7-.2 3.4-.2 5h-2v-8.7zm9.8 0c.6 0 1.2 0 1.8.2a49 49 0 0 1 3.9 5.1c.1-1.7.2-3.5.1-5.3h1.9v8.8c-.6 0-1.1 0-1.6-.2L62 50.3v5h-2.2v-8.7z"/><path fill="#f7b134" d="M68.8 46.6c.7 0 1.4 0 2.1.2l2 3.3c.8-1 1.4-2.2 2-3.3a3 3 0 0 1 2 .1 99 99 0 0 1-3 5.3c0 1-.1 2.1 0 3.2h-2c.1-1 0-2.1 0-3.2l-3.1-5.6z"/></g></svg>